<svg width="16" height="12" viewBox="0 0 16 12" fill="none" xmlns="http://www.w3.org/2000/svg">
<path opacity="0.5" d="M1.35002 1.25005V9.80005H14.65V1.25005H1.35002ZM1.35002 0.300049H14.65C14.902 0.300049 15.1436 0.400138 15.3218 0.578297C15.4999 0.756457 15.6 0.998093 15.6 1.25005V10.75C15.6 11.002 15.4999 11.2436 15.3218 11.4218C15.1436 11.6 14.902 11.7 14.65 11.7H1.35002C1.09807 11.7 0.856433 11.6 0.678273 11.4218C0.500113 11.2436 0.400024 11.002 0.400024 10.75V1.25005C0.400024 0.998093 0.500113 0.756457 0.678273 0.578297C0.856433 0.400138 1.09807 0.300049 1.35002 0.300049Z" fill="white"/>
</svg>
